<?xml version="1.0" encoding="iso-8859-1"?>
<!--
  - Copyright 2021 Google LLC
  -
  - Licensed under the Apache License, Version 2.0 (the "License");
  - you may not use this file except in compliance with the License.
  - You may obtain a copy of the License at
  -
  -     https://www.apache.org/licenses/LICENSE-2.0
  -
  - Unless required by applicable law or agreed to in writing, software
  - distributed under the License is distributed on an "AS IS" BASIS,
  - WITHOUT WARRANTIES OR CONDITIONS OF ANY KIND, either express or implied.
  - See the License for the specific language governing permissions and
  - limitations under the License.
  -->

<svg version="1.1" id="Layer_1" xmlns="http://www.w3.org/2000/svg" xmlns:xlink="http://www.w3.org/1999/xlink" x="0px" y="0px"
	 viewBox="0 0 512 512" style="enable-background:new 0 0 512 512; transform: scale(-1,1);" xml:space="preserve">
<g>
	<g>
		<path fill="#d3d3d3" d="M417.953,193.696c-0.339-0.429-0.68-0.857-1.025-1.281c-3.978-4.91-11.178-5.665-16.085-1.692
			c-4.907,3.974-5.664,11.177-1.689,16.085c0.284,0.351,0.565,0.702,0.845,1.058c2.258,2.86,5.604,4.352,8.985,4.352
			c2.481,0,4.98-0.803,7.077-2.459C421.019,205.847,421.866,198.655,417.953,193.696z"/>
	</g>
</g>
<g>
	<g>
		<path fill="#d3d3d3" d="M510.904,426.482c-0.789-1.669-19.139-39.351-83.008-79.695c7.115-10.629,12.304-22.36,15.471-35.025
			c7.812-31.276,4.316-64.421-9.843-93.333c-2.779-5.672-9.627-8.022-15.302-5.241c-5.673,2.778-8.02,9.629-5.241,15.302
			c11.791,24.073,14.7,51.677,8.194,77.724c-3.392,13.568-9.688,25.784-18.71,36.309c-0.032,0.038-0.066,0.073-0.098,0.111
			c-0.019,0.023-0.041,0.045-0.061,0.068c-22.084,25.615-56.142,36.436-88.959,28.24c-29.046-7.248-49.948-32.167-52.011-62.017
			c-0.501-7.185,0.14-14.403,1.905-21.461c3.414-13.685,11.953-25.217,24.043-32.476c12.089-7.258,26.283-9.369,39.965-5.952
			c10.355,2.585,19.083,9.046,24.575,18.194c5.493,9.148,7.093,19.886,4.509,30.237c-1.92,7.69-6.722,14.174-13.52,18.255
			c-6.798,4.082-14.78,5.268-22.465,3.352c-11.469-2.868-18.473-14.54-15.613-26.02c1.528-6.129-2.203-12.336-8.332-13.863
			c-6.125-1.525-12.336,2.203-13.863,8.332c-5.909,23.709,8.564,47.818,32.264,53.742c13.617,3.403,27.747,1.294,39.783-5.932
			c12.037-7.226,20.538-18.706,23.939-32.325c4.066-16.279,1.547-33.168-7.091-47.554c-8.639-14.387-22.363-24.549-38.643-28.611
			c-19.613-4.901-39.955-1.871-57.282,8.532c-17.331,10.404-29.57,26.936-34.462,46.542c-0.931,3.717-1.616,7.472-2.076,11.246
			l-43.412-16.95c-0.022-0.009-0.045-0.014-0.066-0.022c-0.017-0.007-0.032-0.015-0.049-0.022l-0.041-0.016
			c-2.703-1.106-5.085-2.162-7.318-3.237c-6.395-3.711-11.151-9.937-13.067-17.134c-1.91-7.175-0.889-14.619,2.878-20.968
			c32.486-54.807,98.397-82.298,160.287-66.846c16.084,4.017,30.743,11.259,43.571,21.525c4.932,3.947,12.129,3.149,16.076-1.784
			c3.947-4.932,3.149-12.128-1.784-16.076c-15.416-12.337-33.019-21.039-52.322-25.859c-35.849-8.95-72.715-6.041-106.616,8.405
			c-32.792,13.973-60.808,38.468-78.887,68.968c-3.32,5.596-5.468,11.655-6.433,17.895c-5.219-9.247-8.024-18.927-10.782-28.465
			c-2.366-8.182-4.601-15.911-8.206-23.219c-2.795-5.679-6.451-10.757-10.879-15.162V80.632c0-6.316-5.12-11.437-11.437-11.437
			c-6.317,0-11.437,5.122-11.437,11.437v79.659c-5.474-1.74-11.211-2.652-17.007-2.652h-4.655V80.632
			c0-6.316-5.12-11.437-11.437-11.437s-11.437,5.122-11.437,11.437v77.055c-14.339,0.488-27.758,6.289-37.979,16.495
			C5.871,184.857,0,199.04,0,214.116c0,30.029,23.549,54.659,53.144,56.391c10.888,48.255,35.681,79.067,55.163,96.72
			c12.487,11.317,24.337,18.742,32.595,23.179l-17.73,35.896c-1.751,3.546-1.547,7.744,0.54,11.102
			c2.087,3.358,5.761,5.401,9.715,5.401h367.136c3.918,0,7.563-2.006,9.661-5.316C512.321,434.178,512.578,430.025,510.904,426.482z
			 M151.833,419.93l14.723-29.808c1.435-2.906,1.57-6.285,0.372-9.296c-1.2-3.013-3.62-5.373-6.66-6.497
			c-0.701-0.26-70.292-26.956-86.494-117.184c-0.979-5.45-5.72-9.415-11.258-9.415h-6.039c-18.528,0-33.603-15.08-33.603-33.614
			c0-8.973,3.495-17.414,9.833-23.759c6.356-6.348,14.798-9.843,23.77-9.843h25.562c7.693,0,15.221,2.696,21.215,7.605
			c3.813,3.111,6.849,6.928,9.027,11.353c2.713,5.499,4.674,12.28,6.75,19.462c6.908,23.887,15.504,53.614,58.669,74.375
			c0.023,0.011,0.047,0.022,0.07,0.033c1.915,1.047,3.896,1.996,5.92,2.792l3.351,1.314c0.01,0.003,0.021,0.006,0.03,0.01
			c0.034,0.014,0.069,0.027,0.103,0.04l0.065,0.025c0.001,0,0.001,0.001,0.002,0.001l52.077,20.333
			c5.457,36.462,32.202,66.225,68.486,75.278c9.118,2.277,18.304,3.388,27.396,3.388c28.963-0.002,56.885-11.282,77.954-31.976
			c34.402,21.356,54.708,41.823,65.758,55.384H151.833z"/>
	</g>
</g>
<g>
	<g>
		<path fill="#d3d3d3" d="M81.719,196.571c-6.317,0-11.437,5.122-11.437,11.437v4.289c0,6.316,5.12,11.437,11.437,11.437
			c6.317,0,11.437-5.122,11.437-11.437v-4.289C93.156,201.693,88.036,196.571,81.719,196.571z"/>
	</g>
</g>
<g>
</g>
<g>
</g>
<g>
</g>
<g>
</g>
<g>
</g>
<g>
</g>
<g>
</g>
<g>
</g>
<g>
</g>
<g>
</g>
<g>
</g>
<g>
</g>
<g>
</g>
<g>
</g>
<g>
</g>
</svg>
